<svg xmlns="http://www.w3.org/2000/svg" viewBox="0 0 512 512" role="img" aria-labelledby="title desc">
  <title id="title">似顔絵の仮画像</title>
  <desc id="desc">正式な似顔絵に差し替えるための人物線画</desc>
  <rect width="512" height="512" fill="#e4e2d7"/>
  <circle cx="256" cy="256" r="230" fill="#d9dfd4"/>
  <path d="M127 512c8-103 57-162 129-162s121 59 129 162" fill="#38543c"/>
  <path d="M183 207c0-73 35-120 80-120 46 0 80 47 80 120v38c0 72-35 122-80 122-45 0-80-50-80-122z" fill="#f1d0b4"/>
  <path d="M175 216c-18-91 24-151 88-151 62 0 100 54 88 143-20-13-35-36-42-70-36 42-76 66-134 78z" fill="#253227"/>
  <path d="M171 217c-5 0-11 9-9 27 2 20 10 35 21 34l-2-61zm184 0c5 0 11 9 9 27-2 20-10 35-21 34l2-61z" fill="#f1d0b4"/>
  <path d="M211 231c13-10 29-10 42 0m26 0c13-10 29-10 42 0" fill="none" stroke="#253227" stroke-width="7" stroke-linecap="round"/>
  <path d="M260 232c-5 21-6 42-1 52l14 4" fill="none" stroke="#bb886d" stroke-width="5" stroke-linecap="round"/>
  <path d="M225 310c24 18 52 18 76 0" fill="none" stroke="#8b5543" stroke-width="6" stroke-linecap="round"/>
  <path d="M196 213c20-5 41-4 59 5m16 0c18-9 39-10 59-5" fill="none" stroke="#253227" stroke-width="5" stroke-linecap="round"/>
  <circle cx="232" cy="238" r="5" fill="#253227"/>
  <circle cx="297" cy="238" r="5" fill="#253227"/>
  <path d="M203 355c16 37 35 57 60 57s44-20 60-57" fill="#f1d0b4"/>
  <path d="M194 367l69 45 66-45 32 35-38 110H200l-38-110z" fill="#f6f3ea"/>
  <path d="M128 512c8-91 40-129 82-145l53 45 53-45c42 16 74 54 82 145" fill="none" stroke="#263729" stroke-width="18"/>
</svg>
